# xmcd
#
# Track frame offsets: 
#        150
#        8970
#        28430
#        52448
#        68535
#        86882
#        103337
#        119884
#        133222
#        143821
#        146245
#        161719
#        181370
#        198676
#        221301
#        251056
#
# Disc length: 3514 seconds
#
# Revision: 0
# Processed by: cddbd v1.5.1PL0 Copyright (c) Steve Scherf et al.
# Submitted via: ExactAudioCopy v0.95a5
#
DISCID=0f0db810
DTITLE=The 2nd Language - Language Arts
DYEAR=1900
DGENRE=Hip-Hop
TTITLE0=Intro (Language Arts)
TTITLE1=The Making of You
TTITLE2=New Day Tomorrow
TTITLE3=Corona Nights
TTITLE4=Venomous
TTITLE5=Shuffle (The B Boy Stance)
TTITLE6=Before Twenty
TTITLE7=Sweetest Hangover
TTITLE8=T.H.B.
TTITLE9=Misogynistic (prelude)
TTITLE10=Massagin' This Stick
TTITLE11=Two Queens
TTITLE12=Violin Tragedy
TTITLE13=Corona Nights Extended
TTITLE14=Outro
TTITLE15=Bopha Reach Sros (remix by Redcambino)
EXTD=
EXTT0=
EXTT1=
EXTT2=
EXTT3=
EXTT4=
EXTT5=
EXTT6=
EXTT7=
EXTT8=
EXTT9=
EXTT10=
EXTT11=
EXTT12=
EXTT13=
EXTT14=
EXTT15=
PLAYORDER=
